<svg xmlns="http://www.w3.org/2000/svg" width="400" height="400" viewBox="0 0 400 400" fill="none">
  <rect width="400" height="400" rx="16" fill="#EBF5FF"/>
  <defs>
    <linearGradient id="boxGrad" x1="0" y1="0" x2="0" y2="1">
      <stop offset="0%" stop-color="#0EA5E9"/>
      <stop offset="100%" stop-color="#0369A1"/>
    </linearGradient>
    <filter id="boxShadow" x="-5%" y="-5%" width="115%" height="115%">
      <feDropShadow dx="0" dy="6" stdDeviation="10" flood-color="#0369A1" flood-opacity="0.25"/>
    </filter>
  </defs>
  <g transform="translate(110,60)" filter="url(#boxShadow)">
    <rect x="0" y="30" width="180" height="240" rx="16" fill="url(#boxGrad)"/>
    <rect x="0" y="30" width="180" height="50" rx="16" fill="#0284C7"/>
    <rect x="0" y="55" width="180" height="25" fill="#0284C7"/>
    <rect x="15" y="40" width="100" height="12" rx="3" fill="white" opacity="0.4"/>
    <rect x="15" y="58" width="70" height="8" rx="2" fill="white" opacity="0.25"/>
    <rect x="55" y="140" width="70" height="70" rx="8" fill="white" opacity="0.15"/>
    <rect x="75" y="128" width="30" height="94" rx="6" fill="white" opacity="0.22"/>
    <rect x="43" y="161" width="94" height="30" rx="6" fill="white" opacity="0.22"/>
    <rect x="20" y="240" width="60" height="8" rx="2" fill="white" opacity="0.2"/>
    <rect x="20" y="254" width="40" height="6" rx="2" fill="white" opacity="0.15"/>
  </g>
</svg>
