<svg xmlns="http://www.w3.org/2000/svg" width="200" height="200" viewBox="0 0 200 200" fill="none">
  <circle cx="100" cy="100" r="90" fill="#FEF3C7"/>
  <circle cx="100" cy="100" r="78" fill="#FCD34D" opacity="0.45"/>
  <!-- Baby bottle body -->
  <rect x="78" y="75" width="44" height="68" rx="12" fill="#F59E0B"/>
  <!-- Bottle neck -->
  <rect x="88" y="58" width="24" height="22" rx="4" fill="#D97706"/>
  <!-- Nipple -->
  <path d="M92 58 Q100 38 108 58" fill="#D97706"/>
  <path d="M93 58 Q100 42 107 58" fill="#FBBF24" opacity="0.5"/>
  <!-- Measurement lines on bottle -->
  <rect x="84" y="88" width="14" height="3" rx="1.5" fill="#FEF3C7" opacity="0.6"/>
  <rect x="84" y="98" width="18" height="3" rx="1.5" fill="#FEF3C7" opacity="0.6"/>
  <rect x="84" y="108" width="14" height="3" rx="1.5" fill="#FEF3C7" opacity="0.6"/>
  <rect x="84" y="118" width="18" height="3" rx="1.5" fill="#FEF3C7" opacity="0.6"/>
  <!-- Small heart accent -->
  <g transform="translate(138,68) scale(0.7)">
    <path d="M0-8 C-5-16 -18-8 0 8 C18-8 5-16 0-8Z" fill="#D97706" opacity="0.5"/>
  </g>
</svg>
