<svg xmlns="http://www.w3.org/2000/svg" width="200" height="200" viewBox="0 0 200 200" fill="none">
  <circle cx="100" cy="100" r="90" fill="#FEE2E2"/>
  <circle cx="100" cy="100" r="78" fill="#FCA5A5" opacity="0.45"/>
  <!-- First aid kit box -->
  <rect x="58" y="78" width="84" height="64" rx="10" fill="#EF4444"/>
  <!-- Kit lid top edge -->
  <rect x="58" y="78" width="84" height="16" rx="6" fill="#DC2626"/>
  <rect x="58" y="88" width="84" height="6" fill="#B91C1C" opacity="0.3"/>
  <!-- Handle -->
  <path d="M82 78 L82 68 Q82 62 88 62 L112 62 Q118 62 118 68 L118 78" stroke="#DC2626" stroke-width="6" fill="none" stroke-linecap="round"/>
  <!-- White cross on the kit -->
  <rect x="92" y="98" width="16" height="36" rx="3" fill="white" opacity="0.9"/>
  <rect x="82" y="108" width="36" height="16" rx="3" fill="white" opacity="0.9"/>
  <!-- Bandage accent -->
  <g transform="translate(140,138) rotate(-30)">
    <rect x="-12" y="-5" width="24" height="10" rx="3" fill="#DC2626" opacity="0.5"/>
    <circle cx="-4" cy="0" r="1.5" fill="#FCA5A5" opacity="0.6"/>
    <circle cx="4" cy="0" r="1.5" fill="#FCA5A5" opacity="0.6"/>
  </g>
</svg>
